<?xml version="1.0" standalone="no"?>
<!DOCTYPE svg PUBLIC "-//W3C//DTD SVG 20010904//EN"
 "http://www.w3.org/TR/2001/REC-SVG-20010904/DTD/svg10.dtd">
<svg version="1.0" xmlns="http://www.w3.org/2000/svg"
 width="512.000000pt" height="512.000000pt" viewBox="0 0 512.000000 512.000000"
 preserveAspectRatio="xMidYMid meet">

<g transform="translate(0.000000,512.000000) scale(0.100000,-0.100000)"
fill="#000000" stroke="none">
<path d="M2484 4959 c-71 -9 -172 -48 -223 -86 -86 -64 -1630 -1344 -1664
-1379 -51 -52 -92 -118 -119 -190 l-23 -59 -3 -1295 c-2 -935 0 -1312 8 -1355
40 -210 218 -383 435 -425 44 -8 505 -10 1700 -8 l1640 3 64 23 c179 65 313
213 356 393 22 96 23 2595 0 2682 -21 79 -68 170 -118 224 -48 52 -1636 1360
-1703 1403 -90 56 -231 85 -350 69z m163 -337 c27 -11 333 -257 830 -669 434
-358 800 -664 815 -680 61 -64 58 18 58 -1361 l0 -1258 -25 -51 c-27 -54 -78
-97 -136 -113 -21 -6 -625 -10 -1640 -10 l-1607 0 -53 28 c-39 20 -62 41 -84
77 l-30 48 -3 1261 c-2 876 0 1272 8 1298 6 20 22 51 37 68 48 58 1621 1350
1660 1365 51 19 119 17 170 -3z"/>
<path d="M1520 1158 c-48 -33 -72 -70 -77 -121 -7 -56 25 -118 77 -150 l35
-22 1005 0 1005 0 37 23 c49 31 82 99 75 154 -6 48 -30 84 -77 116 l-33 22
-1007 0 -1007 0 -33 -22z"/>
</g>
</svg>
