<?xml version="1.0" encoding="utf-8"?>
<svg id="master-artboard" xmlns="http://www.w3.org/2000/svg" viewBox="0 0 500 500" width="500px" height="500px"><rect id="ee-background" x="0" y="0" width="500" height="500" style="fill: white; fill-opacity: 0; pointer-events: none;"/><g transform="matrix(1.9681587219238281, 0, 0, 1.9681587219238281, -1088.5297851562502, 3.072795867919922)"><g id="Layer_2" transform="matrix(1.0000000000000002, 0, 0, 1.0000000000000002, -7.462686771858785, -55.7213945632122)">
	<g id="Layer_1-2">
		<path class="st0" d="M 686.3284912109375 87.79104042053223 C 785.6234130859375 150.30413818359375 851.2537231445312 13.673639297485352 853.7412719726562 105.45274353027344 C 856.2288208007812 197.23184776306152 928.356201171875 251.97015380859375 682.3482666015625 247.9900360107422 C 436.34033203125 244.00994873046875 485.08447265625 129.0726318359375 545.7810668945312 85.55223083496094 C 606.4776611328125 42.031829833984375 661.7230081031618 72.30016557719057 686.3284912109375 87.79104042053223 Z" style="fill: rgb(84, 164, 212);"/>
	<path d="M 538.318359375 51.97014617919922 L 537.82080078125 51.97014617919922" style="fill: rgb(84, 164, 212); fill-opacity: 1; stroke: rgb(0, 0, 0); stroke-opacity: 1; stroke-width: 0; paint-order: fill;"/><path d="M 638.318359375 176.84576416015625 L 637.3233032226562 176.34825134277344" style="fill: rgb(84, 164, 212); fill-opacity: 1; stroke: rgb(0, 0, 0); stroke-opacity: 1; stroke-width: 0; paint-order: fill;" transform="matrix(1.0000000000000002, 0, 0, 1.0000000000000002, 15.422885995174795, -11.940298834974044)"/></g>
</g></g><path d="M 279.40899658203125 309.63214111328125 L 250.0334930419922 245.0060272216797 L 279.40899658203125 309.63214111328125 Z" style="fill: rgb(51, 51, 51); fill-opacity: 1; stroke: rgb(0, 0, 0); stroke-opacity: 1; stroke-width: 0; paint-order: fill;"/><path class="st0" d="M 686.3284912109375 87.79104042053223 C 785.6234130859375 150.30413818359375 851.2537231445312 13.673639297485352 853.7412719726562 105.45274353027344 C 856.2288208007812 197.23184776306152 928.356201171875 251.97015380859375 682.3482666015625 247.9900360107422 C 436.34033203125 244.00994873046875 485.08447265625 129.0726318359375 545.7810668945312 85.55223083496094 C 606.4776611328125 42.031829833984375 661.7230081031618 72.30016557719057 686.3284912109375 87.79104042053223 Z" style="fill: rgb(0, 119, 204);" transform="matrix(1.9681587219238283, 0, 0, 1.9681587219238283, -1038.4326605170688, -19.606720236572897)"/><path class="st0" d="M 686.3284912109375 87.79104042053223 C 785.6234130859375 150.30413818359375 851.2537231445312 13.673639297485352 853.7412719726562 105.45274353027344 C 856.2288208007812 197.23184776306152 928.356201171875 251.97015380859375 682.3482666015625 247.9900360107422 C 436.34033203125 244.00994873046875 485.08447265625 129.0726318359375 545.7810668945312 85.55223083496094 C 606.4776611328125 42.031829833984375 661.7230081031618 72.30016557719057 686.3284912109375 87.79104042053223 Z" style="fill: rgb(4, 60, 108);" transform="matrix(1.9681587219238283, 0, 0, 1.9681587219238283, -1120.5382796663212, 93.7693159854743)"/><path d="M 263.7420654296875 356.6329345703125 L 263.7420654296875 356.6329345703125" style="fill: rgb(4, 4, 4); fill-opacity: 1; stroke: rgb(0, 0, 0); stroke-opacity: 1; stroke-width: 0; paint-order: fill;"/><path d="M 311.7220458984375 197.02603149414062 L 314.65960693359375 198.00521850585938" style="fill: rgb(84, 164, 212); fill-opacity: 1; stroke: rgb(0, 0, 0); stroke-opacity: 1; stroke-width: 0; paint-order: fill;"/><path class="st0" d="M 686.3284912109375 87.79104042053223 C 785.6234130859375 150.30413818359375 851.2537231445312 13.673639297485352 853.7412719726562 105.45274353027344 C 856.2288208007812 197.23184776306152 928.356201171875 251.97015380859375 682.3482666015625 247.9900360107422 C 436.34033203125 244.00994873046875 485.08447265625 129.0726318359375 545.7810668945312 85.55223083496094 C 606.4776611328125 42.031829833984375 661.7230081031618 72.30016557719057 686.3284912109375 87.79104042053223 Z" style="fill: rgb(4, 4, 4);" transform="matrix(1.9681587219238283, 0, 0, 1.9681587219238283, -1038.3287282693277, 214.93823679915198)"/></svg>