<?xml version="1.0" encoding="UTF-8"?>
<svg xmlns="http://www.w3.org/2000/svg" xmlns:xlink="http://www.w3.org/1999/xlink" width="25px" height="25px" viewBox="0 0 25 25" version="1.1">
<g id="surface1">
<path style=" stroke:none;fill-rule:nonzero;fill:rgb(0%,0%,0%);fill-opacity:1;" d="M 5.742188 5.664062 C 2.578125 7.96875 0 9.960938 0 10.15625 C 0 10.625 10.976562 18.476562 11.71875 18.515625 C 12.148438 18.554688 12.34375 18.046875 12.421875 16.25 L 12.539062 13.984375 L 14.179688 14.21875 C 18.28125 14.84375 21.601562 17.539062 23.046875 21.40625 C 24.375 24.921875 25.46875 23.007812 24.648438 18.554688 C 23.554688 12.695312 20.117188 8.476562 15.234375 6.992188 L 12.539062 6.171875 L 12.421875 3.984375 C 12.34375 2.8125 12.109375 1.757812 11.914062 1.679688 C 11.679688 1.601562 8.90625 3.398438 5.742188 5.664062 Z M 13.359375 8.007812 C 17.539062 8.828125 21.054688 11.875 22.421875 15.859375 L 23.046875 17.734375 L 21.601562 16.328125 C 19.53125 14.296875 16.171875 12.851562 13.398438 12.773438 L 11.132812 12.695312 L 10.9375 14.570312 L 10.742188 16.40625 L 6.640625 13.476562 C 4.375 11.875 2.539062 10.351562 2.539062 10.15625 C 2.539062 9.960938 4.375 8.4375 6.640625 6.835938 L 10.742188 3.90625 L 11.132812 7.578125 Z M 13.359375 8.007812 "/>
</g>
</svg>
