<?xml version="1.0" standalone="no"?>
<!DOCTYPE svg PUBLIC "-//W3C//DTD SVG 20010904//EN"
 "http://www.w3.org/TR/2001/REC-SVG-20010904/DTD/svg10.dtd">
<svg version="1.0" xmlns="http://www.w3.org/2000/svg"
 width="64.000000pt" height="64.000000pt" viewBox="0 0 64.000000 64.000000"
 preserveAspectRatio="xMidYMid meet">

<g transform="translate(0.000000,64.000000) scale(0.100000,-0.100000)"
fill="#000000" stroke="none">
<path d="M223 622 c-109 -39 -178 -112 -210 -221 -29 -102 4 -228 82 -306 122
-121 328 -121 450 0 91 92 118 241 64 356 -69 146 -241 223 -386 171z m77 -88
l0 -67 -42 7 c-23 4 -44 8 -45 10 -12 12 61 116 81 116 3 0 6 -30 6 -66z m93
23 c38 -50 42 -73 15 -81 -13 -3 -33 -6 -45 -6 -22 0 -23 4 -23 65 0 73 11 77
53 22z m-205 -25 c-18 -33 -29 -42 -50 -42 -16 0 -28 4 -28 8 0 17 88 87 97
78 2 -2 -7 -21 -19 -44z m321 -6 c27 -29 27 -31 -10 -39 -23 -6 -28 -2 -44 36
-10 23 -21 46 -23 50 -8 16 53 -21 77 -47z m-381 -72 c23 -7 27 -26 16 -83 -6
-30 -9 -31 -56 -31 l-50 0 7 36 c14 78 29 92 83 78z m456 -41 c24 -70 23 -73
-33 -73 -46 0 -49 1 -55 31 -11 58 -8 77 17 82 51 10 55 8 71 -40z m-286 -25
l3 -48 -60 0 c-67 0 -68 2 -55 69 7 31 8 32 58 29 l51 -3 3 -47z m156 21 c13
-67 12 -69 -54 -69 l-60 0 0 44 c0 49 6 54 66 55 39 1 42 -1 48 -30z m-310
-131 c9 -34 7 -88 -3 -88 -5 0 -22 -3 -38 -6 -29 -6 -31 -4 -47 42 -24 71 -23
74 33 74 42 0 49 -3 55 -22z m156 -22 l0 -44 -51 -7 c-27 -4 -52 -5 -55 -3 -2
3 -7 26 -10 51 l-7 47 62 0 61 0 0 -44z m160 25 c0 -10 -3 -33 -6 -50 -7 -33
-20 -37 -83 -25 -29 6 -31 9 -31 50 l0 44 60 0 c52 0 60 -2 60 -19z m140 6 c0
-23 -31 -107 -40 -107 -4 0 -22 3 -39 6 -27 6 -31 11 -31 38 0 67 8 76 61 76
34 0 49 -4 49 -13z m-300 -177 c0 -33 -4 -60 -8 -60 -15 0 -40 25 -61 60 -31
52 -28 60 24 60 l45 0 0 -60z m125 50 c12 -19 -50 -110 -75 -110 -6 0 -10 27
-10 60 l0 60 39 0 c22 0 43 -4 46 -10z m-240 -42 c10 -24 21 -47 23 -51 8 -16
-43 15 -76 47 -33 31 -33 31 -10 38 41 11 45 9 63 -34z m344 26 c7 -7 -43 -55
-73 -71 -15 -8 -26 -11 -24 -6 2 4 13 27 23 50 16 38 21 42 44 36 14 -3 28 -7
30 -9z"/>
</g>
</svg>
