<?xml version="1.0" standalone="no"?>
<!DOCTYPE svg PUBLIC "-//W3C//DTD SVG 20010904//EN"
 "http://www.w3.org/TR/2001/REC-SVG-20010904/DTD/svg10.dtd">
<svg version="1.0" xmlns="http://www.w3.org/2000/svg"
 width="512.000000pt" height="512.000000pt" viewBox="0 0 512.000000 512.000000"
 preserveAspectRatio="xMidYMid meet">
<metadata>
Created by potrace 1.16, written by Peter Selinger 2001-2019
</metadata>
<g transform="translate(0.000000,512.000000) scale(0.100000,-0.100000)"
fill="#000000" stroke="none">
<path d="M3495 5096 c-40 -19 -276 -250 -1231 -1207 -971 -973 -1184 -1191
-1195 -1224 -22 -64 -17 -172 9 -230 19 -42 220 -247 1190 -1217 1296 -1296
1209 -1218 1347 -1218 105 0 147 25 287 166 136 138 161 182 161 284 0 128 55
67 -1016 1138 l-972 972 976 978 c1082 1083 1015 1007 1013 1142 -1 100 -26
143 -156 275 -136 137 -185 165 -293 165 -53 0 -82 -6 -120 -24z"/>
</g>
</svg>
